<svg width="110" height="28" viewBox="0 0 110 28" fill="none" xmlns="http://www.w3.org/2000/svg">
<path d="M7.61298 15.7656H14.6751L14.7746 16.3127L14.9238 16.5614L15.3217 16.81H15.8688L16.2666 16.5614L16.4656 16.2132L16.5153 15.7656H19.8972L20.295 16.6111L20.5437 17.4566L20.6929 18.1528L20.7426 18.6999V19.4956L20.6432 20.2914L20.3448 21.5347L19.9469 22.4299L19.4993 23.2257L19.2009 23.6235L18.8528 23.6733H8.25951L7.91138 23.1759L7.46378 22.3802L7.11564 21.5347L6.86697 20.6892L6.76751 20.1422L6.71777 19.5951V18.6502L6.81724 17.8047L7.01617 17.0587L7.31458 16.3127L7.61298 15.7656Z" fill="#6EB63E"/>
<path d="M9.90052 0H17.5098L17.8082 0.149201L18.0071 0.397869L18.0568 0.547069V0.944938L17.8082 1.34281L17.6092 1.44227H11.7407L11.6909 11.3393L11.4423 11.5879L10.4476 11.9858L9.70159 12.3837L9.05505 12.8313L8.40852 13.3783L7.96091 13.8259L7.41384 14.5222L6.96624 15.2185L6.56837 16.0142L6.22024 16.9591L6.0213 17.9538L5.97157 18.302V19.8934L6.1705 21.087L6.56837 22.2806L6.96624 23.1261L7.41384 23.8224L7.66251 24.1705L7.91118 24.3197H19.4991L19.897 23.9716L20.3943 23.2256L20.7922 22.4298L21.0906 21.6838L21.389 20.54L21.4884 19.794V18.4014L21.3392 17.5062L21.0408 16.4618L20.643 15.5666L20.2451 14.8703L19.6483 14.0746L18.952 13.3286L18.405 12.881L17.659 12.3837L16.714 11.8863L15.9183 11.5382L15.7691 11.3393V8.20604L15.8686 8.10657H17.1616L17.3606 8.30551L17.3108 8.65364L17.2114 8.85258V10.5435L18.0071 10.9414L18.7034 11.3393L19.4494 11.8863L20.0462 12.4334L20.3446 12.6821L20.6927 13.0799L21.3392 13.9254L21.7371 14.5719L22.135 15.3677L22.4334 16.1137L22.682 16.9591L22.881 18.1528V20.0426L22.682 21.286L22.3339 22.4298L21.8863 23.4245L21.4387 24.2202L20.9414 24.9165L20.4938 25.4139L20.2451 25.6128L19.8472 25.762H7.51331L7.06571 25.5631L6.56837 25.0657L5.97157 24.2202L5.52397 23.4245L5.1261 22.579L4.8277 21.6341L4.57903 20.4902L4.5293 20.0426V18.302L4.72823 17.1083L5.02663 16.0639L5.4245 15.0693L5.97157 14.0746L6.56837 13.2789L7.16518 12.5826L7.51331 12.2345L8.06038 11.7869L8.75665 11.2895L9.65185 10.7922L10.2984 10.4938V1.49201H9.85079L9.55239 1.34281L9.35345 1.09414L9.30372 0.994671V0.547069L9.55239 0.149201L9.90052 0Z" fill="#193343"/>
<path d="M0.849112 26.8066H26.5116L26.7603 27.0056L26.8598 27.2542L26.81 27.6521L26.6111 27.9008L26.4122 28.0002H1.04805L0.699911 27.851L0.500977 27.5526V27.2045L0.699911 26.9061L0.849112 26.8066Z" fill="#C6D0D3"/>
<path d="M12.0392 17.3564H12.3873L12.8349 17.5056L13.1333 17.7543L13.382 18.2516V18.8485L13.1333 19.2961L12.8349 19.5447L12.4868 19.6939H11.9894L11.4921 19.4453L11.1937 19.0971L11.0942 18.7987V18.3511L11.2434 17.9035L11.4921 17.6051L11.8402 17.4062L12.0392 17.3564Z" fill="#F9FAFA"/>
<path d="M8.20945 16.1631L8.45812 16.2128L8.50786 16.3123L8.15972 17.3567L8.01052 18.053L7.96079 18.5503V19.7439L8.10999 20.6888L8.50786 22.0814L8.40839 22.1311L8.10999 21.7332L7.81159 21.1364L7.61265 20.4402L7.51318 19.7936V18.4508L7.61265 17.7546L7.81159 17.0583L8.10999 16.3123L8.20945 16.1631Z" fill="#C6D0D3"/>
<path d="M17.3601 18.5508H17.8574L18.2553 18.7994L18.4542 19.1973V19.5952L18.305 19.8936L18.0066 20.1423L17.559 20.2417L17.1611 20.0925L16.8627 19.7444L16.813 19.6449V19.0979L17.0119 18.7994L17.2606 18.6005L17.3601 18.5508Z" fill="#F8F9F9"/>
<path d="M14.6751 21.0371H15.1725L15.4709 21.236L15.6201 21.4847V21.982L15.4211 22.2804L15.073 22.4296L14.6751 22.3799L14.3767 22.181L14.2275 21.8826L14.2773 21.435L14.5757 21.0868L14.6751 21.0371Z" fill="#F7F8F9"/>
<path d="M15.968 2.88477H17.3605L17.5595 3.03397L17.6092 3.33237L17.46 3.58104L17.4103 3.63077H15.9182L15.769 3.43183V3.0837L15.968 2.88477Z" fill="#193443"/>
<path d="M15.968 5.4209L17.261 5.47063L17.5097 5.5701L17.6092 5.7193L17.5595 6.06743L17.46 6.11717H15.9182L15.8188 6.06743L15.769 5.66957L15.8685 5.47063L15.968 5.4209Z" fill="#1A3743"/>
<path d="M15.9188 6.71387H17.3611L17.5103 6.81333V7.16147L17.3611 7.31067H15.9685L15.8193 7.2112V6.81333L15.9188 6.71387Z" fill="#193343"/>
<path d="M15.9188 4.625H17.1124L17.2616 4.7742L17.2119 5.12234L17.0627 5.27154L16.814 5.32127H16.0183L15.8193 5.12234V4.7742L15.9188 4.625Z" fill="#1D3942"/>
<path d="M98.467 6H100.732L101.024 6.21918L101.097 11.7717L101.609 11.2603L102.485 10.7489L103.143 10.5297L103.581 10.4566H104.823L105.846 10.6758L107.015 11.2603L107.819 11.9178L108.476 12.6484L108.988 13.5251L109.353 14.621L109.499 15.7899V16.4475L109.353 17.6895L108.988 18.7854L108.549 19.589L107.892 20.3927L107.307 20.9041L106.357 21.4886L105.335 21.8539L104.458 22H103.362L102.339 21.7808L101.389 21.2694L100.878 20.831L100.659 21.2694L100.367 21.4886H99.1976L98.5401 21.3424L98.394 21.1963L98.3209 20.9041L98.2479 15.4977L98.1748 6.29224L98.2479 6.07306L98.467 6Z" fill="#02807D"/>
<path d="M47.6177 10.457H49.0789L50.0286 10.6762L50.9784 11.1876L51.5629 11.699V11.8452H51.709V10.9684L52.0012 10.6762H54.12L54.4122 10.8954V21.562L54.193 21.7812H52.0012L51.7821 21.7082L51.6359 21.3429V20.5392L50.8323 21.1967L50.1748 21.6351L49.2981 21.9273L48.7866 22.0004H47.6177L46.4487 21.7082L45.4259 21.1967L44.5492 20.3931L44.0378 19.8086L43.5264 18.9319L43.1611 17.9821L43.015 17.2515L42.9419 16.0095L43.088 14.8406L43.3803 13.8908L43.9647 12.7219L44.7684 11.7721L45.572 11.1876L46.4487 10.7493L47.6177 10.457Z" fill="#02807D"/>
<path d="M88.8234 10.457H90.3577L91.2344 10.6762L91.965 11.0415L92.6956 11.699L92.8417 11.8452L92.9878 10.8954L93.2801 10.6762H95.2527L95.5449 10.8223L95.6179 10.9684V21.489L95.3988 21.7812H93.1339L92.8417 21.489V20.5392L92.2572 21.0506L91.5266 21.562L90.5038 21.9273L89.9924 22.0004H88.9696L87.8737 21.7812L86.7047 21.1967L85.9741 20.6123L85.3897 19.9547L84.8052 19.005L84.4399 17.9821L84.2938 17.3977L84.2207 16.7401V15.7173L84.4399 14.4753L84.8052 13.4525L85.4627 12.4296L86.0472 11.7721L86.8508 11.1876L87.7275 10.7493L88.8234 10.457Z" fill="#02807D"/>
<path d="M38.4854 6H39.9466L41.1886 6.21918L41.7 6.43836V8.63013L41.627 8.77625H41.1156L40.385 8.63013H39.143L38.4124 8.84931L37.974 9.21461L37.6087 9.9452L37.5357 10.4566V11.6986H41.0425L41.3347 11.8447L41.4078 11.9909V14.0365L41.2617 14.1826H37.4626V21.6347L37.3165 21.7808H34.6863L34.6133 21.7077V14.1826H33.006L32.8599 14.0365V11.9178L33.006 11.6986H34.6133V9.87214L34.8325 8.77625L35.1247 8.04566L35.7092 7.24201L36.2936 6.73059L37.1704 6.29224L37.974 6.07306L38.4854 6Z" fill="#02807D"/>
<path d="M60.3308 10.457H61.6459L62.7418 10.6762L63.6915 11.0415L64.4221 11.4799L64.5683 11.699L64.4221 12.3566L64.1299 13.3063L63.9107 13.5255L63.3993 13.4525L62.5957 13.0872L61.6459 12.868H60.6231L59.8925 13.1602L59.6733 13.5255V14.0369L60.0386 14.4753L61.0614 14.9136L63.034 15.5712L63.9107 16.0826L64.5683 16.8132L64.8605 17.4707L64.9336 17.836V19.078L64.6413 20.0278L64.0568 20.8314L63.3993 21.3429L62.5957 21.7082L61.8651 21.9273L61.2806 22.0004H59.9655L58.7235 21.7812L57.7737 21.4159L56.9701 20.9776L56.5317 20.5392L56.6048 20.0278L57.1162 18.7858L57.2623 18.6397H57.7007L58.7966 19.2241L59.7463 19.5164L60.2578 19.5894H60.9153L61.5728 19.4433L61.9381 19.1511L62.0112 19.005V18.3474L61.7189 17.9821L60.8422 17.6168L58.6505 16.8862L57.9199 16.4479L57.4084 16.0095L56.9701 15.2789L56.824 14.7675L56.7509 13.9639L56.897 13.0141L57.1893 12.2835L57.7007 11.626L58.3582 11.1146L59.2349 10.6762L60.3308 10.457Z" fill="#02807D"/>
<path d="M67.8552 7.31445H70.12L70.4122 7.38751L70.4853 7.53363V10.7482H73.3346L73.5538 11.0405L73.4807 13.0861L73.3346 13.2323H70.4853L70.5584 18.3464L70.8506 19.0039L71.289 19.2962L71.5812 19.3692H72.531L73.1154 19.2231L73.4807 19.2962L73.6268 19.8076L73.846 21.3418L73.4077 21.6341L72.2387 21.9263H70.5584L69.6816 21.7071L68.9511 21.3418L68.5127 20.9765L68.0743 20.319L67.7821 19.6615L67.636 18.9309L67.5629 13.7437L67.4899 13.3053H66.5401L66.2479 13.1592L66.1748 13.0131V11.3327L66.3209 10.8213L66.467 10.7482H67.636V7.46057L67.8552 7.31445Z" fill="#02807D"/>
<path d="M76.4034 6L78.8143 6.07306L78.9605 6.21918V19.2968H83.271L83.4171 19.516V21.6347L83.271 21.7808H76.1111L76.0381 21.7077V6.14612L76.4034 6Z" fill="#02807D"/>
<path d="M48.3481 13.0137H49.0056L49.8823 13.2328L50.686 13.7443L51.1974 14.3287L51.4896 14.9132L51.6358 15.4246L51.7088 16.5205L51.4896 17.5433L51.0513 18.347L50.3937 19.0045L49.6632 19.3698L48.9326 19.5159L48.0559 19.4429L47.3253 19.1507L46.7408 18.7123L46.2294 18.0548L45.9371 17.3242L45.791 16.6666V15.7169L46.0833 14.694L46.5216 14.0365L47.033 13.5251L47.7636 13.1598L48.3481 13.0137Z" fill="#FBFBFC"/>
<path d="M89.7 13.0137H90.2844L91.2342 13.3059L91.8917 13.7443L92.4032 14.3287L92.7684 15.0593L92.9146 15.6438V16.7397L92.6954 17.6164L92.3301 18.2739L91.8187 18.8584L91.0881 19.2968L90.2114 19.5159L89.2616 19.4429L88.531 19.1507L87.7274 18.4201L87.3621 17.8356L87.0698 16.8128V15.6438L87.3621 14.694L87.8735 13.8904L88.6771 13.3059L89.2616 13.0867L89.7 13.0137Z" fill="#FBFBFC"/>
<path d="M103.362 13.0137H104.239L105.115 13.3059L105.7 13.7443L106.211 14.3287L106.577 15.1324L106.723 15.863V16.5936L106.577 17.3972L106.138 18.2739L105.554 18.9315L104.531 19.4429L104.093 19.5159H103.435L102.485 19.2237L101.901 18.7854L101.389 18.2009L101.024 17.3972L100.878 16.5205V15.863L101.17 14.694L101.609 14.0365L102.12 13.5251L102.851 13.1598L103.362 13.0137Z" fill="#FBFBFB"/>
</svg>
