<svg width="40" height="40" viewBox="0 0 40 40" fill="none" xmlns="http://www.w3.org/2000/svg">
<path d="M0 4C0 1.79086 1.79086 0 4 0H36C38.2091 0 40 1.79086 40 4V36C40 38.2091 38.2091 40 36 40H4C1.79086 40 0 38.2091 0 36V4Z" fill="#02807D"/>
<path fill-rule="evenodd" clip-rule="evenodd" d="M19.3333 14.6673C16.7559 14.6673 14.6666 16.7567 14.6666 19.334C14.6666 21.9113 16.7559 24.0007 19.3333 24.0007C21.9106 24.0007 23.9999 21.9113 23.9999 19.334C23.9999 16.7567 21.9106 14.6673 19.3333 14.6673ZM13.3333 19.334C13.3333 16.0203 16.0195 13.334 19.3333 13.334C22.647 13.334 25.3333 16.0203 25.3333 19.334C25.3333 22.6477 22.647 25.334 19.3333 25.334C16.0195 25.334 13.3333 22.6477 13.3333 19.334Z" fill="white"/>
<path fill-rule="evenodd" clip-rule="evenodd" d="M22.6286 22.6289C22.889 22.3685 23.3111 22.3685 23.5714 22.6289L26.4714 25.5289C26.7318 25.7892 26.7318 26.2113 26.4714 26.4717C26.2111 26.732 25.789 26.732 25.5286 26.4717L22.6286 23.5717C22.3683 23.3113 22.3683 22.8892 22.6286 22.6289Z" fill="white"/>
</svg>
